<mxfile host="app.diagrams.net" modified="2023-10-09T13:21:03.015Z" agent="Mozilla/5.0 (Macintosh; Intel Mac OS X 10_15_7) AppleWebKit/537.36 (KHTML, like Gecko) Chrome/117.0.0.0 Safari/537.36" version="22.0.4" etag="prJ_pHtBIoMCOWqb-Noc" type="github">
  <diagram name="Page-1" id="RNscG0ePnTjaybumxVep">
    <mxGraphModel>
      <root>
        <mxCell id="0" />
        <mxCell id="1" parent="0" />
      </root>
    </mxGraphModel>
  </diagram>
</mxfile>
